<svg width="18" height="14" viewBox="0 0 18 14" fill="none" xmlns="http://www.w3.org/2000/svg">
<g id="us.svg" clip-path="url(#clip0_1618_982)">
<g id="Group">
<g id="Group_2">
<path id="Vector" fill-rule="evenodd" clip-rule="evenodd" d="M0.333374 0.5H25.0334V1.50039H0.333374V0.5ZM0.333374 2.50078H25.0334V3.50117H0.333374V2.50078ZM0.333374 4.49902H25.0334V5.50195H0.333374V4.49902ZM0.333374 6.4998H25.0334V7.5002H0.333374V6.4998ZM0.333374 8.50059H25.0334V9.50098H0.333374V8.50059ZM0.333374 10.4988H25.0334V11.4992H0.333374V10.4988ZM0.333374 12.4996H25.0334V13.5H0.333374V12.4996Z" fill="#BD3D44"/>
<path id="Vector_2" fill-rule="evenodd" clip-rule="evenodd" d="M0.333374 1.5H25.0334V2.50039H0.333374V1.5ZM0.333374 3.50078H25.0334V4.49863H0.333374V3.50078ZM0.333374 5.49902H25.0334V6.49941H0.333374V5.49902ZM0.333374 7.4998H25.0334V8.5002H0.333374V7.4998ZM0.333374 9.50059H25.0334V10.501H0.333374V9.50059ZM0.333374 11.4988H25.0334V12.4992H0.333374V11.4988Z" fill="white"/>
</g>
<path id="Vector_3" fill-rule="evenodd" clip-rule="evenodd" d="M0.333374 0.5H10.2129V7.5002H0.333374V0.5Z" fill="#192F5D"/>
<path id="Vector_4" fill-rule="evenodd" clip-rule="evenodd" d="M1.15601 0.799561L1.24741 1.07632H1.53687L1.30327 1.24644L1.39214 1.52573L1.15601 1.35308L0.922412 1.52319L1.01128 1.24644L0.775146 1.07632H1.06968L1.15601 0.799561ZM2.80386 0.799561L2.89272 1.07632H3.18472L2.94858 1.24644L3.03745 1.52573L2.80386 1.35308L2.56772 1.52319L2.65659 1.24644L2.423 1.07632H2.71245L2.80386 0.799561ZM4.44917 0.799561L4.54058 1.07632H4.82749L4.5939 1.24644L4.68276 1.52573L4.44663 1.35308L4.21304 1.52319L4.3019 1.24644L4.06577 1.07632H4.35776L4.44917 0.799561ZM6.09702 0.799561L6.18589 1.07632H6.47788L6.24175 1.24644L6.33315 1.52573L6.09702 1.35308L5.86089 1.52319L5.9523 1.24644L5.71616 1.07632H6.00562L6.09702 0.799561ZM7.74233 0.799561L7.83374 1.07632H8.12319L7.8896 1.24644L7.97847 1.52573L7.74233 1.35308L7.50874 1.52319L7.59761 1.24644L7.36401 1.07632H7.65347L7.74233 0.799561ZM9.39019 0.799561L9.47905 1.07632H9.77105L9.53491 1.24644L9.62632 1.52573L9.39019 1.35308L9.15405 1.52319L9.24546 1.24644L9.00933 1.07632H9.30132L9.39019 0.799561ZM1.9812 1.50034L2.07007 1.7771H2.36206L2.12593 1.94722L2.21226 2.22397L1.98374 2.05386L1.74761 2.22397L1.8314 1.94722L1.60288 1.7771H1.89233L1.9812 1.50034ZM3.62651 1.50034L3.71792 1.7771H4.00737L3.77124 1.94722L3.86265 2.22397L3.62651 2.05386L3.39038 2.22397L3.48179 1.94722L3.24565 1.7771H3.53765L3.62651 1.50034ZM5.27437 1.50034L5.36323 1.7771H5.65522L5.41909 1.94722L5.50796 2.22397L5.27437 2.05386L5.03823 2.22397L5.1271 1.94722L4.89351 1.7771H5.18296L5.27437 1.50034ZM6.91968 1.50034L7.01108 1.7771H7.30054L7.0644 1.94722L7.15581 2.22397L6.91968 2.05386L6.68608 2.22397L6.77495 1.94722L6.53882 1.7771H6.83335L6.91968 1.50034ZM8.56753 1.50034L8.6564 1.7771H8.94839L8.71226 1.94722L8.80112 2.22397L8.56753 2.05386L8.3314 2.22397L8.42026 1.94722L8.18667 1.7771H8.47612L8.56753 1.50034ZM1.15601 2.19858L1.24741 2.48042H1.53687L1.30327 2.65054L1.39214 2.92729L1.15601 2.75464L0.922412 2.92729L1.01128 2.648L0.775146 2.47788H1.06968L1.15601 2.19858ZM2.80386 2.19858L2.89272 2.47788H3.18472L2.94858 2.648L3.03745 2.92476L2.80386 2.7521L2.56772 2.92476L2.65659 2.64546L2.423 2.47534H2.71245L2.80386 2.19858ZM4.44917 2.19858L4.54058 2.47788H4.82749L4.5939 2.648L4.68276 2.92476L4.44663 2.7521L4.21304 2.92476L4.3019 2.64546L4.06577 2.47534H4.35776L4.44917 2.19858ZM6.09702 2.19858L6.18589 2.47788H6.47788L6.24175 2.648L6.33315 2.92476L6.09702 2.7521L5.86089 2.92476L5.9523 2.64546L5.71616 2.47534H6.00562L6.09702 2.19858ZM7.74233 2.19858L7.83374 2.47788H8.12319L7.8896 2.648L7.97847 2.92476L7.74233 2.7521L7.50874 2.92476L7.59761 2.64546L7.36401 2.47534H7.65347L7.74233 2.19858ZM9.39019 2.19858L9.47905 2.47788H9.77105L9.53491 2.648L9.62632 2.92476L9.39019 2.7521L9.15405 2.92476L9.24546 2.64546L9.00933 2.47534H9.30132L9.39019 2.19858ZM1.9812 2.89937L2.07007 3.17612H2.36206L2.12593 3.34624L2.21479 3.62554L1.9812 3.45288L1.74507 3.623L1.83394 3.34624L1.60034 3.17612H1.88979L1.9812 2.89937ZM3.62651 2.89937L3.71792 3.17612H4.00737L3.77124 3.34624L3.86265 3.62554L3.62651 3.45288L3.39038 3.623L3.48179 3.34624L3.24565 3.17612H3.53765L3.62651 2.89937ZM5.27437 2.89937L5.36323 3.17612H5.65522L5.41909 3.34624L5.50796 3.62554L5.27437 3.45288L5.03823 3.623L5.1271 3.34624L4.89351 3.17612H5.18296L5.27437 2.89937ZM6.91968 2.89937L7.01108 3.17612H7.30054L7.06694 3.34624L7.15581 3.62554L6.91968 3.45288L6.68608 3.623L6.77495 3.34624L6.53882 3.17612H6.83335L6.91968 2.89937ZM8.56753 2.89937L8.6564 3.17612H8.94839L8.71226 3.34624L8.80112 3.62554L8.56753 3.45288L8.3314 3.623L8.42026 3.34624L8.18667 3.17612H8.47612L8.56753 2.89937ZM1.15601 3.60015L1.24741 3.8769H1.53687L1.30327 4.04702L1.39214 4.32632L1.15601 4.15366L0.922412 4.32378L1.01128 4.04702L0.775146 3.8769H1.06968L1.15601 3.60015ZM2.80386 3.60015L2.89272 3.8769H3.18472L2.94858 4.04702L3.03745 4.32378L2.80386 4.15366L2.56772 4.32378L2.65659 4.04702L2.423 3.8769H2.71245L2.80386 3.60015ZM4.44917 3.60015L4.54058 3.8769H4.82749L4.5939 4.04702L4.68276 4.32632L4.44663 4.15366L4.21304 4.32378L4.3019 4.04702L4.06577 3.8769H4.35776L4.44917 3.60015ZM6.09702 3.60015L6.18589 3.8769H6.47788L6.24175 4.04702L6.33315 4.32632L6.09702 4.15366L5.86089 4.32378L5.9523 4.04702L5.71616 3.8769H6.00562L6.09702 3.60015ZM7.74233 3.60015L7.83374 3.8769H8.12319L7.8896 4.04702L7.97847 4.32632L7.74233 4.15366L7.50874 4.32378L7.59761 4.04702L7.36401 3.8769H7.65347L7.74233 3.60015ZM9.39019 3.60015L9.47905 3.8769H9.77105L9.53491 4.04702L9.62632 4.32632L9.39019 4.15366L9.15405 4.32378L9.24546 4.04702L9.00933 3.8769H9.30132L9.39019 3.60015ZM1.9812 4.30093L2.07007 4.57769H2.36206L2.12593 4.7478L2.21479 5.02456L1.9812 4.8519L1.74507 5.02456L1.83394 4.74526L1.60034 4.57515H1.88979L1.9812 4.30093ZM3.62651 4.30093L3.71792 4.57769H4.00737L3.77124 4.7478L3.86265 5.02456L3.62651 4.8519L3.39038 5.02456L3.48179 4.74526L3.24565 4.57515H3.53765L3.62651 4.30093ZM5.27437 4.30093L5.36323 4.57769H5.65522L5.41909 4.7478L5.50796 5.02456L5.27437 4.8519L5.03823 5.02456L5.1271 4.74526L4.89351 4.57515H5.18296L5.27437 4.30093ZM6.91968 4.30093L7.01108 4.57769H7.30054L7.06694 4.7478L7.15581 5.02456L6.91968 4.8519L6.68608 5.02456L6.77495 4.74526L6.53882 4.57515H6.83335L6.91968 4.30093ZM8.56753 4.30093L8.6564 4.57769H8.94839L8.71226 4.7478L8.80112 5.02456L8.56753 4.8519L8.3314 5.02456L8.42026 4.74526L8.18667 4.57515H8.47612L8.56753 4.30093ZM1.15601 4.99917L1.24741 5.27847H1.53687L1.30327 5.44858L1.39214 5.7228L1.15601 5.55269L0.922412 5.7228L1.01128 5.44604L0.775146 5.27593H1.06968L1.15601 4.99917ZM2.80386 4.99917L2.89272 5.27847H3.18472L2.94858 5.44858L3.03999 5.7228L2.80386 5.55269L2.56772 5.7228L2.65913 5.44604L2.423 5.27593H2.71245L2.80386 4.99917ZM4.44917 4.99917L4.54058 5.27847H4.82749L4.5939 5.44858L4.68276 5.7228L4.44663 5.55269L4.21304 5.7228L4.3019 5.44604L4.06577 5.27593H4.35776L4.44917 4.99917ZM6.09702 4.99917L6.18589 5.27847H6.47788L6.24175 5.44858L6.33315 5.7228L6.09702 5.55269L5.86089 5.7228L5.9523 5.44604L5.71616 5.27593H6.00562L6.09702 4.99917ZM7.74233 4.99917L7.83374 5.27847H8.12319L7.8896 5.44858L7.97847 5.7228L7.74233 5.55269L7.50874 5.7228L7.59761 5.44604L7.36401 5.27593H7.65347L7.74233 4.99917ZM9.39019 4.99917L9.47905 5.27847H9.77105L9.53491 5.44858L9.62632 5.7228L9.39019 5.55269L9.15405 5.7228L9.24546 5.44604L9.00933 5.27593H9.30132L9.39019 4.99917ZM1.9812 5.69995L2.07007 5.97671H2.36206L2.12593 6.14683L2.21479 6.42612L1.9812 6.25347L1.74507 6.42358L1.83394 6.14683L1.60034 5.97671H1.88979L1.9812 5.69995ZM3.62651 5.69995L3.71792 5.97671H4.00737L3.77124 6.14683L3.86265 6.42612L3.62651 6.25347L3.39038 6.42358L3.48179 6.14683L3.24565 5.97671H3.53765L3.62651 5.69995ZM5.27437 5.69995L5.36323 5.97671H5.65522L5.41909 6.14683L5.50796 6.42612L5.27437 6.25347L5.03823 6.42358L5.1271 6.14683L4.89351 5.97671H5.18296L5.27437 5.69995ZM6.91968 5.69995L7.01108 5.97671H7.30054L7.06694 6.14683L7.15581 6.42612L6.91968 6.25347L6.68608 6.42358L6.77495 6.14683L6.53882 5.97671H6.83335L6.91968 5.69995ZM8.56753 5.69995L8.6564 5.97671H8.94839L8.71226 6.14683L8.80112 6.42612L8.56753 6.25347L8.3314 6.42358L8.42026 6.14683L8.18667 5.97671H8.47612L8.56753 5.69995ZM1.15601 6.40073L1.24741 6.67749H1.53687L1.30327 6.84761L1.39214 7.12436L1.15601 6.95425L0.922412 7.12436L1.01128 6.84507L0.775146 6.67495H1.06968L1.15601 6.40073ZM2.80386 6.40073L2.89272 6.67749H3.18472L2.94858 6.84761L3.03999 7.12436L2.80386 6.95425L2.56772 7.12436L2.65913 6.84507L2.423 6.67495H2.71245L2.80386 6.40073ZM4.44917 6.40073L4.54058 6.67749H4.82749L4.59897 6.84761L4.68784 7.12436L4.45171 6.95425L4.21812 7.12436L4.30698 6.84507L4.07085 6.67495H4.36284L4.44917 6.40073ZM6.09702 6.40073L6.18589 6.67749H6.47788L6.24175 6.84761L6.33315 7.12436L6.09702 6.95425L5.86089 7.12436L5.9523 6.84507L5.71616 6.67495H6.00562L6.09702 6.40073ZM7.74233 6.40073L7.83374 6.67749H8.12319L7.8896 6.84761L7.97847 7.12436L7.74233 6.95425L7.50874 7.12436L7.59761 6.84507L7.36401 6.67495H7.65347L7.74233 6.40073ZM9.39019 6.40073L9.47905 6.67749H9.77105L9.53491 6.84761L9.62632 7.12436L9.39019 6.95425L9.15405 7.12436L9.24546 6.84507L9.00933 6.67495H9.30132L9.39019 6.40073Z" fill="white"/>
</g>
</g>
<defs>
<clipPath id="clip0_1618_982">
<rect width="17.3333" height="13" fill="white" transform="translate(0.333374 0.5)"/>
</clipPath>
</defs>
</svg>
